<svg width="20" height="20" viewBox="0 0 20 20" fill="none" xmlns="http://www.w3.org/2000/svg">
<path d="M10 2.39766C9.27664 2.39766 8.6608 2.65107 8.15249 3.15789C7.64418 3.66472 7.39003 4.27875 7.39003 5C7.39003 5.72125 7.64418 6.33528 8.15249 6.84211C8.6608 7.34893 9.27664 7.60234 10 7.60234C10.7234 7.60234 11.3392 7.34893 11.8475 6.84211C12.3558 6.33528 12.61 5.72125 12.61 5C12.61 4.27875 12.3558 3.66472 11.8475 3.15789C11.3392 2.65107 10.7234 2.39766 10 2.39766ZM10.0293 13.6257C8.3089 13.6257 6.60802 13.9474 4.92669 14.5906C3.24536 15.2339 2.40469 15.7895 2.40469 16.2573V17.6023H17.654V16.2573C17.654 15.7895 16.8133 15.2339 15.132 14.5906C13.4506 13.9474 11.7498 13.6257 10.0293 13.6257ZM10 0C11.3881 0 12.5709 0.487329 13.5484 1.46199C14.5259 2.43665 15.0147 3.61598 15.0147 5C15.0147 6.38402 14.5259 7.56335 13.5484 8.53801C12.5709 9.51267 11.3881 10 10 10C8.61193 10 7.42913 9.51267 6.45161 8.53801C5.4741 7.56335 4.98534 6.38402 4.98534 5C4.98534 3.61598 5.4741 2.43665 6.45161 1.46199C7.42913 0.487329 8.61193 0 10 0ZM10 11.2281C11.2317 11.2281 12.5904 11.4035 14.0762 11.7544C15.5621 12.1053 16.9208 12.6803 18.1525 13.4795C19.3842 14.2788 20 15.2047 20 16.2573V20H0V16.2573C0 15.2047 0.615836 14.2788 1.84751 13.4795C3.07918 12.6803 4.43793 12.1053 5.92375 11.7544C7.40958 11.4035 8.76833 11.2281 10 11.2281Z" fill="#667C8A"/>
</svg>
