<svg width="20" height="14" viewBox="0 0 20 14" fill="none" xmlns="http://www.w3.org/2000/svg">
<path d="M0 13.005C0 13.555 0.446001 14 0.995001 14H9.005C9.26889 14 9.52197 13.8952 9.70857 13.7086C9.89517 13.522 10 13.2689 10 13.005C10 12.7411 9.89517 12.488 9.70857 12.3014C9.52197 12.1148 9.26889 12.01 9.005 12.01H0.995001C0.445001 12.01 0 12.455 0 13.005Z" fill="black"/>
<path d="M0 7C0 7.55 0.446001 7.995 0.995001 7.995H19.005C19.2689 7.995 19.522 7.89017 19.7086 7.70358C19.8952 7.51698 20 7.2639 20 7C20 6.73611 19.8952 6.48303 19.7086 6.29643C19.522 6.10983 19.2689 6.005 19.005 6.005H0.995001C0.445002 6.005 0 6.451 0 7Z" fill="black"/>
<path d="M0.995001 1.99C0.731111 1.99 0.478028 1.88517 0.29143 1.69857C0.104831 1.51197 0 1.25889 0 0.995C0 0.731109 0.104831 0.478027 0.29143 0.291429C0.478028 0.10483 0.731111 7.86455e-09 0.995001 0H13.005C13.1357 -3.89413e-09 13.2651 0.0257364 13.3858 0.0757399C13.5065 0.125743 13.6162 0.199034 13.7086 0.291429C13.801 0.383823 13.8743 0.493511 13.9243 0.61423C13.9743 0.734949 14 0.864335 14 0.995C14 1.12567 13.9743 1.25505 13.9243 1.37577C13.8743 1.49649 13.801 1.60618 13.7086 1.69857C13.6162 1.79097 13.5065 1.86426 13.3858 1.91426C13.2651 1.96426 13.1357 1.99 13.005 1.99H0.995001Z" fill="black"/>
</svg>
